<mxfile host="app.diagrams.net" modified="2023-06-25T03:41:35.838Z" agent="Mozilla/5.0 (Windows NT 10.0; Win64; x64) AppleWebKit/537.36 (KHTML, like Gecko) Chrome/114.0.0.0 Safari/537.36 Edg/114.0.1823.58" etag="SKt-VxuYk_VKUvHE_Fz1" version="21.5.0" type="github">
  <diagram name="Page-1" id="e3a06f82-3646-2815-327d-82caf3d4e204">
    <mxGraphModel dx="2019" dy="1124" grid="1" gridSize="10" guides="1" tooltips="1" connect="1" arrows="1" fold="1" page="1" pageScale="1.5" pageWidth="1169" pageHeight="826" background="none" math="0" shadow="0">
      <root>
        <mxCell id="0" style=";html=1;" />
        <mxCell id="1" style=";html=1;" parent="0" />
        <mxCell id="KqSf9Hwdw_-mJAA5NMdA-5" value="" style="shape=link;html=1;rounded=0;exitX=0.5;exitY=1;exitDx=0;exitDy=0;fontSize=24;labelBackgroundColor=none;" parent="1" source="RgH2JHaKkqkQcPpsvsZi-15" edge="1">
          <mxGeometry width="100" relative="1" as="geometry">
            <mxPoint x="660" y="530" as="sourcePoint" />
            <mxPoint x="810" y="570" as="targetPoint" />
          </mxGeometry>
        </mxCell>
        <mxCell id="RgH2JHaKkqkQcPpsvsZi-17" value="" style="shape=link;html=1;rounded=0;exitX=1;exitY=0.5;exitDx=0;exitDy=0;fontSize=24;labelBackgroundColor=none;" parent="1" source="KqSf9Hwdw_-mJAA5NMdA-1" edge="1">
          <mxGeometry width="100" relative="1" as="geometry">
            <mxPoint x="900" y="650" as="sourcePoint" />
            <mxPoint x="910" y="570" as="targetPoint" />
          </mxGeometry>
        </mxCell>
        <mxCell id="KqSf9Hwdw_-mJAA5NMdA-9" value="Your Home Network" style="edgeLabel;html=1;align=center;verticalAlign=middle;resizable=0;points=[];fontSize=24;" parent="RgH2JHaKkqkQcPpsvsZi-17" vertex="1" connectable="0">
          <mxGeometry x="-0.1241" y="1" relative="1" as="geometry">
            <mxPoint as="offset" />
          </mxGeometry>
        </mxCell>
        <mxCell id="6a7d8f32e03d9370-62" value="Lab Topology" style="text;strokeColor=none;fillColor=none;html=1;fontSize=24;fontStyle=1;verticalAlign=middle;align=center;fontColor=default;labelBackgroundColor=none;" parent="1" vertex="1">
          <mxGeometry x="499" y="30" width="861" height="40" as="geometry" />
        </mxCell>
        <mxCell id="RgH2JHaKkqkQcPpsvsZi-2" value="Internet" style="image;aspect=fixed;perimeter=ellipsePerimeter;html=1;align=center;shadow=0;dashed=0;spacingTop=3;image=img/lib/active_directory/internet_cloud.svg;fontSize=24;fontColor=default;labelBackgroundColor=none;" parent="1" vertex="1">
          <mxGeometry x="110" y="490.5" width="252.38" height="159" as="geometry" />
        </mxCell>
        <mxCell id="RgH2JHaKkqkQcPpsvsZi-4" value="" style="endArrow=none;dashed=1;html=1;dashPattern=1 3;strokeWidth=2;rounded=0;fontSize=24;fontColor=default;labelBackgroundColor=none;" parent="1" source="KqSf9Hwdw_-mJAA5NMdA-1" edge="1">
          <mxGeometry width="50" height="50" relative="1" as="geometry">
            <mxPoint x="460" y="295" as="sourcePoint" />
            <mxPoint x="460" y="845" as="targetPoint" />
          </mxGeometry>
        </mxCell>
        <mxCell id="RgH2JHaKkqkQcPpsvsZi-15" value="Host Machine" style="image;html=1;image=img/lib/clip_art/computers/Laptop_128x128.png;fontSize=24;labelBackgroundColor=default;" parent="1" vertex="1">
          <mxGeometry x="770" y="340" width="80" height="100" as="geometry" />
        </mxCell>
        <mxCell id="KqSf9Hwdw_-mJAA5NMdA-3" value="" style="shape=link;html=1;rounded=0;exitX=1;exitY=0.5;exitDx=0;exitDy=0;entryX=0;entryY=0.5;entryDx=0;entryDy=0;fontSize=24;labelBackgroundColor=none;" parent="1" source="RgH2JHaKkqkQcPpsvsZi-2" target="KqSf9Hwdw_-mJAA5NMdA-1" edge="1">
          <mxGeometry width="100" relative="1" as="geometry">
            <mxPoint x="362" y="570" as="sourcePoint" />
            <mxPoint x="1210" y="570" as="targetPoint" />
          </mxGeometry>
        </mxCell>
        <mxCell id="KqSf9Hwdw_-mJAA5NMdA-4" value="" style="endArrow=none;dashed=1;html=1;dashPattern=1 3;strokeWidth=2;rounded=0;fontSize=24;fontColor=default;labelBackgroundColor=none;" parent="1" target="KqSf9Hwdw_-mJAA5NMdA-1" edge="1">
          <mxGeometry width="50" height="50" relative="1" as="geometry">
            <mxPoint x="460" y="295" as="sourcePoint" />
            <mxPoint x="460" y="845" as="targetPoint" />
          </mxGeometry>
        </mxCell>
        <mxCell id="KqSf9Hwdw_-mJAA5NMdA-1" value="Your Router" style="image;html=1;image=img/lib/clip_art/networking/Wireless_Router_128x128.png;fontSize=24;" parent="1" vertex="1">
          <mxGeometry x="419" y="530" width="80" height="80" as="geometry" />
        </mxCell>
        <mxCell id="KqSf9Hwdw_-mJAA5NMdA-6" value="" style="shape=link;html=1;rounded=0;exitX=0.5;exitY=1;exitDx=0;exitDy=0;fontSize=24;labelBackgroundColor=none;" parent="1" source="KqSf9Hwdw_-mJAA5NMdA-7" edge="1">
          <mxGeometry width="100" relative="1" as="geometry">
            <mxPoint x="1300" y="645" as="sourcePoint" />
            <mxPoint x="1140" y="390" as="targetPoint" />
          </mxGeometry>
        </mxCell>
        <mxCell id="KqSf9Hwdw_-mJAA5NMdA-7" value="Win7 &lt;br style=&quot;font-size: 24px;&quot;&gt;(with leaked info)" style="image;html=1;image=img/lib/clip_art/computers/Laptop_128x128.png;fontSize=24;labelBackgroundColor=default;" parent="1" vertex="1">
          <mxGeometry x="1100" y="70" width="80" height="100" as="geometry" />
        </mxCell>
        <mxCell id="KqSf9Hwdw_-mJAA5NMdA-8" value="" style="shape=link;html=1;rounded=0;fontSize=24;labelBackgroundColor=none;entryX=1;entryY=0.5;entryDx=0;entryDy=0;" parent="1" target="RgH2JHaKkqkQcPpsvsZi-15" edge="1">
          <mxGeometry width="100" relative="1" as="geometry">
            <mxPoint x="1380" y="390" as="sourcePoint" />
            <mxPoint x="1040" y="400" as="targetPoint" />
          </mxGeometry>
        </mxCell>
        <mxCell id="KqSf9Hwdw_-mJAA5NMdA-10" value="&lt;font style=&quot;font-size: 24px;&quot;&gt;NAT Network&lt;/font&gt;" style="edgeLabel;html=1;align=center;verticalAlign=middle;resizable=0;points=[];" parent="KqSf9Hwdw_-mJAA5NMdA-8" vertex="1" connectable="0">
          <mxGeometry x="0.5623" y="-1" relative="1" as="geometry">
            <mxPoint as="offset" />
          </mxGeometry>
        </mxCell>
        <mxCell id="KqSf9Hwdw_-mJAA5NMdA-11" value="OpenDLP" style="image;html=1;image=img/lib/clip_art/computers/Laptop_128x128.png;fontSize=24;labelBackgroundColor=default;" parent="1" vertex="1">
          <mxGeometry x="1290" y="70" width="80" height="100" as="geometry" />
        </mxCell>
        <mxCell id="KqSf9Hwdw_-mJAA5NMdA-12" value="" style="shape=link;html=1;rounded=0;exitX=0.5;exitY=1;exitDx=0;exitDy=0;fontSize=24;labelBackgroundColor=none;" parent="1" source="KqSf9Hwdw_-mJAA5NMdA-11" edge="1">
          <mxGeometry width="100" relative="1" as="geometry">
            <mxPoint x="1320" y="160" as="sourcePoint" />
            <mxPoint x="1330" y="390" as="targetPoint" />
          </mxGeometry>
        </mxCell>
      </root>
    </mxGraphModel>
  </diagram>
</mxfile>
